<?xml version="1.0" encoding="UTF-8"?>
<!DOCTYPE svg PUBLIC "-//W3C//DTD SVG 1.1//EN" "http://www.w3.org/Graphics/SVG/1.1/DTD/svg11.dtd">
<!-- Creator: CorelDRAW 2020 (64-Bit) -->
<svg xmlns="http://www.w3.org/2000/svg" xml:space="preserve" width="84.6666mm" height="84.6666mm" version="1.1" style="shape-rendering:geometricPrecision; text-rendering:geometricPrecision; image-rendering:optimizeQuality; fill-rule:evenodd; clip-rule:evenodd"
viewBox="0 0 8466.66 8466.66"
 xmlns:xlink="http://www.w3.org/1999/xlink"
 xmlns:xodm="http://www.corel.com/coreldraw/odm/2003">
 <defs>
  <style type="text/css">
   <![CDATA[
    .fil1 {fill:#2B2A29}
    .fil2 {fill:#E31E24}
    .fil4 {fill:#00A0E3}
    .fil0 {fill:white}
    .fil3 {fill:#2B2A29;fill-rule:nonzero}
   ]]>
  </style>
 </defs>
 <g id="Warstwa_x0020_1">
  <metadata id="CorelCorpID_0Corel-Layer"/>
  <rect class="fil0" x="-16.94" y="-8.47" width="8441.27" height="8483.6"/>
  <g id="_1835106856624">
   <path class="fil1" d="M7045.3 2532.24c-41.23,52.08 -83.13,102.23 -125.71,150.43 234.51,19.8 433.37,61.02 596.58,123.64 282.42,94.37 443.84,254.76 484.27,481.18 23.65,-179.46 25.66,-373.25 -150.43,-469.84 94.65,-18.19 202.84,-61.46 324.56,-129.83 -210.9,12.6 -439.3,-8.7 -685.19,-63.88 -130.82,-23.93 -278.84,-54.5 -444.08,-91.7z"/>
   <path class="fil1" d="M3387.6 2612.59c684.44,47.74 1069.44,107.16 1154.99,178.26 -1477.59,-193.55 -2770.34,-54.8 -3878.25,416.26 685.53,-425.39 1520.8,-625.96 2505.82,-601.72 1097.03,-484.54 2235.91,-534 3416.65,-148.38 53.71,24.64 95.95,73.4 126.73,146.31 -1200.69,118.84 -1801.05,178.25 -1801.05,178.25 32.81,-52.33 446.33,-121.72 1240.57,-208.13 -439.62,-92.05 -659.43,-138.07 -659.43,-138.07 139.6,-15.13 395.13,24.71 766.59,119.52 157.98,-13.74 236.98,-20.61 236.98,-20.61 -10.99,-21.97 -16.49,-32.96 -16.49,-32.96 -1136.08,-288.19 -2167.12,-251.1 -3093.11,111.27z"/>
   <path class="fil2" d="M2180.07 3872.19c-129.16,325.25 -193.73,487.87 -193.73,487.87 1371.05,-2.75 2056.58,-4.12 2056.58,-4.12 77.63,-224.62 116.44,-336.93 116.44,-336.93 -972.65,5.5 -1458.98,8.25 -1458.98,8.25 34.87,-61.43 108.88,-97.15 222.04,-107.16 749.77,-152.84 1124.65,-229.25 1124.65,-229.25 129.58,-14.62 223,-73.69 280.25,-177.22 71.44,-189.58 107.16,-284.38 107.16,-284.38 47.21,-149.99 -77.46,-258.18 -376.08,-285.41 -1061.95,-8.24 -1592.93,-4.12 -1592.93,-4.12 -71.43,221.18 -108.18,343.11 -108.18,343.11 879.23,-9.62 1318.85,-14.43 1318.85,-14.43 78.46,-4.07 112.46,20.31 102.01,73.16 -14.69,73.55 -77.89,118.55 -189.59,134.97 -832.53,151.13 -1248.79,226.68 -1248.79,226.68 -73.34,8.24 -126.58,64.57 -159.7,168.98z"/>
   <path class="fil2" d="M4694.82 2940.78c-339.33,945.19 -508.09,1415.25 -508.09,1415.25 237.62,0.09 476.26,-1.62 714.02,-0.04 141.5,-420.38 211.73,-629.05 211.73,-629.05 390.86,419 586.28,628.51 586.28,628.51 322.84,0 645.69,0 968.53,0 -563.26,-497.32 -844.89,-745.98 -844.89,-745.98 816.04,-446.49 1224.06,-669.73 1224.06,-669.73 -287.13,0 -574.25,0 -861.37,0 -674.54,384.66 -1011.81,577 -1011.81,577 142.87,-380.55 217.91,-575.72 217.91,-575.72 -462.12,-2.24 -696.37,-0.24 -696.37,-0.24z"/>
   <path class="fil3" d="M664.34 5522.46l192.15 0 29.99 -183.98 170.34 0 31.35 183.98 192.15 0 -203.06 -907.61 -209.87 0 -203.05 907.61zm250.75 -350.24l57.24 -365.22 57.24 365.22 -114.48 0zm780.87 -557.37l0 682.75c0,50.42 -23.17,74.95 -85.85,74.95 -62.69,0 -85.86,-24.53 -85.86,-77.68l0 -680.02 -190.78 0 0 669.12c0,156.72 85.85,254.84 276.64,254.84 190.79,0 276.64,-98.12 276.64,-254.84l0 -669.12 -190.79 0zm425.19 907.61l190.78 0 0 -741.35 166.26 0 0 -166.26 -523.3 0 0 166.26 166.26 0 0 741.35zm406.1 -261.65c0,153.99 65.42,278 278,278 212.6,0 278.01,-124.01 278.01,-278l0 -384.3c0,-154 -65.41,-278.01 -278.01,-278.01 -212.58,0 -278,124.01 -278,278.01l0 384.3zm190.79 19.07l0 -422.45c0,-58.61 20.44,-96.76 87.21,-96.76 66.78,0 87.22,38.15 87.22,96.76l0 422.45c0,58.6 -20.44,96.76 -87.22,96.76 -66.77,0 -87.21,-38.16 -87.21,-96.76zm733.17 242.58l288.91 0c181.24,0 260.29,-81.77 260.29,-275.28l0 -357.05c0,-193.51 -79.05,-275.28 -260.29,-275.28l-288.91 0 0 907.61zm190.79 -166.26l0 -575.09 79.04 0c69.5,0 88.58,28.62 88.58,100.84l0 373.4c0,72.23 -19.08,100.85 -88.58,100.85l-79.04 0zm464.7 166.26l466.07 0 0 -166.26 -275.28 0 0 -208.51 250.75 0 0 -166.26 -250.75 0 0 -200.32 273.92 0 0 -166.26 -464.71 0 0 907.61zm682.75 0l190.79 0 0 -741.35 166.26 0 0 -166.26 -523.31 0 0 166.26 166.26 0 0 741.35zm318.89 0l192.15 0 29.98 -183.98 170.35 0 31.34 183.98 192.16 0 -203.06 -907.61 -209.87 0 -203.05 907.61zm250.75 -350.24l57.24 -365.22 57.23 365.22 -114.47 0zm433.36 350.24l190.79 0 0 -907.61 -190.79 0 0 907.61zm316.16 0l419.73 0 0 -166.26 -228.94 0 0 -741.35 -190.79 0 0 907.61zm513.77 0l190.78 0 0 -907.61 -190.78 0 0 907.61zm316.16 0l183.97 0 0 -512.4 226.22 512.4 189.43 0 0 -907.61 -183.98 0 0 512.4 -227.58 -512.4 -188.06 0 0 907.61zm708.64 -242.58c0,171.71 91.3,258.93 279.37,258.93 94.03,0 188.06,-14.99 248.02,-36.79l0 -425.19 -175.8 0 0 295.72c-14.99,5.45 -38.15,6.82 -57.23,6.82 -80.41,0 -103.57,-36.8 -103.57,-107.66l0 -381.58c0,-92.67 34.06,-125.37 126.73,-125.37 68.14,0 121.29,9.54 183.98,28.62l24.53 -160.81c-57.24,-20.44 -143.09,-34.07 -227.58,-34.07 -179.89,0 -298.45,68.14 -298.45,275.28l0 406.1z"/>
   <path class="fil3" d="M3537.93 6214.34c-55.7,0 -98.97,-15.43 -130.03,-46.28 -31.06,-30.75 -46.59,-72.16 -46.59,-124.13 0,-49.91 12.94,-98.36 38.82,-145.26 25.89,-46.9 60.36,-84.58 103.43,-113.06 43.17,-28.47 93.39,-42.76 150.85,-42.76 57.46,0 101.56,15.53 132.31,46.59 30.75,30.96 46.08,72.27 46.08,123.83 0,49.9 -12.84,98.15 -38.42,144.74 -25.57,46.58 -59.84,84.27 -103.01,113.16 -43.07,28.78 -94.21,43.17 -153.44,43.17zm21.02 -61.5c29.2,0 56.94,-9.63 82.93,-28.89 26.09,-19.15 47.73,-48.03 65.02,-86.44 17.29,-38.52 25.88,-77.55 25.88,-117.2 0,-38.62 -8.9,-67.61 -26.81,-86.97 -17.91,-19.36 -41.21,-28.99 -70.09,-28.99 -28.27,0 -55.7,9.84 -82.31,29.4 -26.51,19.67 -48.25,48.67 -65.12,86.97 -16.88,38.41 -25.27,77.03 -25.27,115.86 0,39.85 9.22,69.26 27.75,87.99 18.43,18.85 41.1,28.27 68.02,28.27zm302.01 50.32l89.45 -449.12 156.23 0c50.73,0 84.79,8.69 102.18,26.09 17.4,17.29 26.09,38.4 26.09,63.25 0,28.89 -9.01,58.91 -27.12,90.07 -18.12,31.07 -42.97,54.36 -74.65,69.99 -31.68,15.53 -68.85,23.3 -111.5,23.3l-33.96 0 -35.1 176.42 -91.62 0zm138.62 -236.05l22.47 0c23.3,0 43.18,-4.25 59.63,-12.85 16.47,-8.59 30.13,-22.25 40.9,-40.99 10.67,-18.64 16.05,-37.17 16.05,-55.6 0,-13.77 -5.28,-24.23 -15.74,-31.37 -10.56,-7.14 -33.54,-10.77 -68.85,-10.77l-24.33 0 -30.13 151.58zm428.94 247.23c-55.7,0 -98.98,-15.43 -130.04,-46.28 -31.06,-30.75 -46.59,-72.16 -46.59,-124.13 0,-49.91 12.94,-98.36 38.83,-145.26 25.88,-46.9 60.35,-84.58 103.43,-113.06 43.17,-28.47 93.38,-42.76 150.84,-42.76 57.46,0 101.57,15.53 132.32,46.59 30.75,30.96 46.07,72.27 46.07,123.83 0,49.9 -12.84,98.15 -38.41,144.74 -25.58,46.58 -59.84,84.27 -103.02,113.16 -43.07,28.78 -94.21,43.17 -153.43,43.17zm21.02 -61.5c29.19,0 56.94,-9.63 82.92,-28.89 26.09,-19.15 47.73,-48.03 65.02,-86.44 17.29,-38.52 25.89,-77.55 25.89,-117.2 0,-38.62 -8.91,-67.61 -26.82,-86.97 -17.91,-19.36 -41.21,-28.99 -70.09,-28.99 -28.26,0 -55.7,9.84 -82.31,29.4 -26.5,19.67 -48.25,48.67 -65.12,86.97 -16.88,38.41 -25.26,77.03 -25.26,115.86 0,39.85 9.21,69.26 27.74,87.99 18.43,18.85 41.1,28.27 68.03,28.27zm302 50.32l89.45 -449.12 93.07 0 -77.02 387 208.2 0 -12.42 62.12 -301.28 0zm364.85 0l89.45 -449.12 282.64 0 -12.11 62.12 -189.88 0 -24.85 124.86 151.67 0 -11.49 58.39 -151.78 0 -28.16 141.63 202.31 0 -12.12 62.12 -295.68 0z"/>
   <polygon class="fil1" points="3214.88,6007.41 3214.88,5956.73 1014.11,5956.73 "/>
   <polygon class="fil1" points="5636.24,6001.96 5636.24,5951.28 7837,5951.28 "/>
   <path class="fil4" d="M7084.81 2469.19c-20.9,-4.56 -87.41,-31.84 -105.34,-44.35 -87.61,-61.11 -84.93,-166.49 -77.84,-312.41l-18.73 62.3c-6.17,21.08 -12.54,42.31 -19.68,62.41 -21.72,61.07 -44.18,104.33 -85.39,131.01 -39.43,25.52 -133.15,36.07 -176.74,40.16 6.44,6.88 97.04,26.41 121.94,42.66 29.91,19.52 43.42,35.85 60.11,69.84 21.29,43.35 21.53,118.49 21.18,174.23l-0.11 66.01c0.13,0.75 0.33,1.82 0.62,2.65 17.3,-82.72 49.98,-175.1 88.41,-226.36 16.21,-21.61 49.1,-40.7 78.05,-48.99 14.04,-4.02 30.31,-7.77 45.57,-10.22 8.7,-1.39 15.81,-2.39 24.58,-3.62l43.37 -5.32z"/>
   <path class="fil1" d="M7085.79 2447.24c-15.84,-2.13 -67,-18.43 -81.11,-26.66 -68.92,-40.21 -73.29,-118.83 -76.83,-227.91l-10.18 47.52c-3.32,16.07 -6.78,32.26 -10.89,47.66 -12.47,46.78 -26.59,80.35 -55.66,102.7 -27.81,21.39 -96.95,34.91 -129.17,40.58 5.22,4.73 73.85,13.8 93.37,24.4 23.45,12.73 34.5,24.07 48.98,48.36 18.47,31 23.19,86.93 26.3,128.45l3.9 49.16c0.14,0.55 0.36,1.33 0.62,1.93 7.89,-62.63 26.63,-133.39 52.15,-173.88 10.76,-17.07 34.1,-33.27 55.16,-41.19 10.21,-3.84 22.1,-7.61 33.31,-10.36 6.39,-1.56 11.62,-2.73 18.08,-4.18l31.97 -6.58z"/>
  </g>
 </g>
</svg>
