<?xml version="1.0" encoding="UTF-8"?>
<!DOCTYPE svg PUBLIC "-//W3C//DTD SVG 1.1//EN" "http://www.w3.org/Graphics/SVG/1.1/DTD/svg11.dtd">
<!-- Creator: CorelDRAW 2020 (64-Bit) -->
<svg xmlns="http://www.w3.org/2000/svg" xml:space="preserve" width="160.712mm" height="87.7774mm" version="1.1" style="shape-rendering:geometricPrecision; text-rendering:geometricPrecision; image-rendering:optimizeQuality; fill-rule:evenodd; clip-rule:evenodd"
viewBox="0 0 16066.34 8775.06"
 xmlns:xlink="http://www.w3.org/1999/xlink"
 xmlns:xodm="http://www.corel.com/coreldraw/odm/2003">
 <defs>
  <style type="text/css">
   <![CDATA[
    .fil0 {fill:#2B2A29}
    .fil1 {fill:#E31E25}
    .fil3 {fill:#00A0E3}
    .fil2 {fill:#2B2A29;fill-rule:nonzero}
   ]]>
  </style>
 </defs>
 <g id="Warstwa_x0020_1">
  <metadata id="CorelCorpID_0Corel-Layer"/>
  <path class="fil0" d="M13650.54 898.09c-88.19,111.43 -177.84,218.69 -268.92,321.81 501.68,42.37 927.09,130.54 1276.23,264.51 604.17,201.87 949.5,544.99 1035.98,1029.37 50.58,-383.92 54.89,-798.48 -321.82,-1005.12 202.49,-38.9 433.93,-131.47 694.33,-277.73 -451.17,26.94 -939.77,-18.61 -1465.79,-136.66 -279.85,-51.19 -596.53,-116.58 -950.01,-196.18z"/>
  <path class="fil0" d="M5825.75 1069.97c1464.2,102.13 2287.81,229.25 2470.83,381.35 -3160.94,-414.05 -5926.46,-117.22 -8296.58,890.49 1466.53,-910.02 3253.4,-1339.1 5360.6,-1287.25 2346.84,-1036.55 4783.21,-1142.36 7309.11,-317.4 114.89,52.69 205.27,157.02 271.12,312.98 -2568.61,254.22 -3852.92,381.33 -3852.92,381.33 70.19,-111.97 954.82,-260.39 2653.89,-445.25 -940.45,-196.91 -1410.68,-295.37 -1410.68,-295.37 298.64,-32.37 845.28,52.86 1639.92,255.69 337.98,-29.39 506.97,-44.09 506.97,-44.09 -23.51,-47.02 -35.27,-70.53 -35.27,-70.53 -2430.38,-616.5 -4636.04,-537.16 -6616.98,238.04z"/>
  <path class="fil1" d="M3242.53 3764.6c-276.29,695.78 -414.43,1043.67 -414.43,1043.67 2933.05,-5.88 4399.57,-8.82 4399.57,-8.82 166.06,-480.51 249.09,-720.77 249.09,-720.77 -2080.76,11.76 -3121.14,17.63 -3121.14,17.63 74.6,-131.4 232.93,-207.82 475.01,-229.24 1603.94,-326.95 2405.91,-490.42 2405.91,-490.42 277.21,-31.27 477.05,-157.64 599.54,-379.12 152.82,-405.57 229.24,-608.35 229.24,-608.35 100.99,-320.87 -165.71,-552.31 -804.52,-610.56 -2271.79,-17.63 -3407.69,-8.82 -3407.69,-8.82 -152.82,473.17 -231.44,734 -231.44,734 1880.92,-20.57 2821.37,-30.86 2821.37,-30.86 167.84,-8.72 240.59,43.45 218.22,156.49 -31.43,157.36 -166.62,253.61 -405.58,288.75 -1781,323.29 -2671.5,484.93 -2671.5,484.93 -156.89,17.62 -270.78,138.12 -341.65,361.49z"/>
  <path class="fil1" d="M8622.24 1772.06c-725.92,2022 -1086.94,3027.6 -1086.94,3027.6 508.35,0.19 1018.85,-3.47 1527.47,-0.08 302.71,-899.32 452.96,-1345.71 452.96,-1345.71 836.14,896.36 1254.2,1344.54 1254.2,1344.54 690.65,0 1381.3,0 2071.95,0 -1204.96,-1063.9 -1807.45,-1595.84 -1807.45,-1595.84 1745.73,-955.16 2618.59,-1432.73 2618.59,-1432.73 -614.24,0 -1228.48,0 -1842.71,0 -1443.02,822.9 -2164.53,1234.35 -2164.53,1234.35 305.65,-814.08 466.18,-1231.6 466.18,-1231.6 -988.59,-4.79 -1489.73,-0.52 -1489.73,-0.52z"/>
  <path class="fil2" d="M0.01 7294.95l411.05 0 64.14 -393.57 364.42 0 67.05 393.57 411.06 0 -434.39 -1941.61 -448.96 0 -434.38 1941.61zm536.42 -749.24l122.44 -781.3 122.44 781.3 -244.89 0zm1670.48 -1192.37l0 1460.58c0,107.87 -49.56,160.34 -183.66,160.34 -134.11,0 -183.66,-52.47 -183.66,-166.18l0 -1454.75 -408.15 0 0 1431.42c0,335.27 183.66,545.16 591.81,545.16 408.15,0 591.81,-209.9 591.81,-545.16l0 -1431.42 -408.15 0zm909.58 1941.61l408.15 0 0 -1585.94 355.67 0 0 -355.67 -1119.49 0 0 355.67 355.67 0 0 1585.94zm868.77 -559.74c0,329.43 139.94,594.72 594.72,594.72 454.79,0 594.73,-265.29 594.73,-594.72l0 -822.12c0,-329.44 -139.94,-594.73 -594.73,-594.73 -454.78,0 -594.72,265.29 -594.72,594.73l0 822.12zm408.15 40.81l0 -903.74c0,-125.36 43.73,-206.99 186.57,-206.99 142.86,0 186.58,81.63 186.58,206.99l0 903.74c0,125.36 -43.73,207 -186.58,207 -142.85,0 -186.57,-81.64 -186.57,-207zm1568.44 518.93l618.05 0c387.73,0 556.82,-174.92 556.82,-588.89l0 -763.82c0,-413.97 -169.09,-588.9 -556.82,-588.9l-618.05 0 0 1941.61zm408.15 -355.67l0 -1230.26 169.09 0c148.68,0 189.49,61.22 189.49,215.73l0 798.8c0,154.51 -40.81,215.73 -189.49,215.73l-169.09 0zm994.13 355.67l997.04 0 0 -355.67 -588.89 0 0 -446.04 536.42 0 0 -355.67 -536.42 0 0 -428.55 585.98 0 0 -355.67 -994.13 0 0 1941.61zm1460.57 0l408.15 0 0 -1585.94 355.67 0 0 -355.67 -1119.49 0 0 355.67 355.67 0 0 1585.94zm682.19 0l411.05 0 64.14 -393.57 364.42 0 67.05 393.57 411.06 0 -434.39 -1941.61 -448.96 0 -434.38 1941.61zm536.42 -749.24l122.44 -781.3 122.44 781.3 -244.89 0zm927.07 749.24l408.15 0 0 -1941.61 -408.15 0 0 1941.61zm676.35 0l897.92 0 0 -355.67 -489.77 0 0 -1585.94 -408.15 0 0 1941.61zm1099.07 0l408.15 0 0 -1941.61 -408.15 0 0 1941.61zm676.35 0l393.57 0 0 -1096.16 483.94 1096.16 405.23 0 0 -1941.61 -393.57 0 0 1096.17 -486.85 -1096.17 -402.32 0 0 1941.61zm1515.97 -518.93c0,367.34 195.32,553.91 597.64,553.91 201.16,0 402.32,-32.06 530.59,-78.71l0 -909.58 -376.08 0 0 632.63c-32.07,11.66 -81.63,14.58 -122.44,14.58 -172.01,0 -221.56,-78.72 -221.56,-230.31l0 -816.29c0,-198.24 72.88,-268.21 271.12,-268.21 145.77,0 259.47,20.4 393.57,61.22l52.47 -344.02c-122.44,-43.73 -306.11,-72.88 -486.85,-72.88 -384.82,0 -638.46,145.77 -638.46,588.89l0 868.77z"/>
  <path class="fil2" d="M6147.37 8775.06c-119.15,0 -211.74,-33 -278.18,-99.01 -66.45,-65.78 -99.67,-154.37 -99.67,-265.55 0,-106.76 27.68,-210.42 83.05,-310.75 55.37,-100.33 129.12,-180.94 221.26,-241.86 92.35,-60.91 199.78,-91.47 322.7,-91.47 122.92,0 217.27,33.22 283.05,99.67 65.78,66.22 98.56,154.59 98.56,264.89 0,106.76 -27.46,209.97 -82.17,309.64 -54.7,99.66 -128.01,180.29 -220.37,242.08 -92.13,61.57 -201.55,92.36 -328.24,92.36zm44.97 -131.56c62.45,0 121.81,-20.6 177.41,-61.8 55.81,-40.97 102.1,-102.76 139.09,-184.93 36.99,-82.39 55.37,-165.89 55.37,-250.71 0,-82.61 -19.04,-144.64 -57.36,-186.05 -38.32,-41.42 -88.15,-62.01 -149.94,-62.01 -60.46,0 -119.15,21.04 -176.08,62.9 -56.7,42.08 -103.22,104.1 -139.32,186.04 -36.1,82.17 -54.04,164.78 -54.04,247.84 0,85.26 19.71,148.16 59.36,188.25 39.43,40.32 87.92,60.47 145.52,60.47zm646.06 107.64l191.36 -960.79 334.22 0c108.53,0 181.39,18.6 218.6,55.81 37.21,36.99 55.81,82.16 55.81,135.32 0,61.8 -19.27,126.03 -58.03,192.69 -38.76,66.45 -91.91,116.28 -159.69,149.72 -67.77,33.22 -147.29,49.83 -238.54,49.83l-72.64 0 -75.09 377.4 -196.01 0zm296.56 -504.98l48.07 0c49.83,0 92.36,-9.09 127.57,-27.47 35.22,-18.37 64.45,-47.62 87.49,-87.7 22.81,-39.87 34.33,-79.52 34.33,-118.93 0,-29.46 -11.3,-51.83 -33.67,-67.11 -22.59,-15.29 -71.76,-23.03 -147.29,-23.03l-52.04 0 -64.46 324.25zm917.6 528.9c-119.15,0 -211.74,-33 -278.18,-99.01 -66.45,-65.78 -99.67,-154.37 -99.67,-265.55 0,-106.76 27.68,-210.42 83.05,-310.75 55.37,-100.33 129.12,-180.94 221.26,-241.86 92.35,-60.91 199.78,-91.47 322.7,-91.47 122.92,0 217.27,33.22 283.05,99.67 65.78,66.22 98.56,154.59 98.56,264.89 0,106.76 -27.46,209.97 -82.17,309.64 -54.7,99.66 -128.01,180.29 -220.37,242.08 -92.13,61.57 -201.55,92.36 -328.24,92.36zm44.97 -131.56c62.45,0 121.81,-20.6 177.41,-61.8 55.81,-40.97 102.1,-102.76 139.09,-184.93 36.99,-82.39 55.37,-165.89 55.37,-250.71 0,-82.61 -19.04,-144.64 -57.36,-186.05 -38.32,-41.42 -88.15,-62.01 -149.94,-62.01 -60.46,0 -119.15,21.04 -176.08,62.9 -56.7,42.08 -103.22,104.1 -139.32,186.04 -36.1,82.17 -54.04,164.78 -54.04,247.84 0,85.26 19.71,148.16 59.36,188.25 39.43,40.32 87.92,60.47 145.52,60.47zm646.06 107.64l191.36 -960.79 199.11 0 -164.78 827.9 445.4 0 -26.58 132.89 -644.51 0zm780.5 0l191.36 -960.79 604.65 0 -25.91 132.89 -406.2 0 -53.16 267.11 324.47 0 -24.58 124.91 -324.69 0 -60.24 302.99 432.78 0 -25.91 132.89 -632.56 0z"/>
  <polygon class="fil0" points="5456.27,8332.39 5456.27,8223.96 748.25,8223.96 "/>
  <polygon class="fil0" points="10636.19,8320.73 10636.19,8212.31 15344.2,8212.31 "/>
  <path class="fil3" d="M13735.05 763.22c-44.71,-9.76 -186.97,-68.11 -225.34,-94.88 -187.41,-130.74 -181.68,-356.17 -166.52,-668.34l-40.06 133.29c-13.2,45.08 -26.84,90.51 -42.12,133.52 -46.46,130.62 -94.51,223.18 -182.66,280.24 -84.34,54.61 -284.83,77.18 -378.1,85.92 13.79,14.71 207.6,56.49 260.87,91.25 63.99,41.77 92.88,76.7 128.6,149.4 45.55,92.74 46.06,253.49 45.31,372.74l-0.24 141.22c0.28,1.6 0.71,3.88 1.33,5.66 37.02,-176.97 106.91,-374.59 189.12,-484.24 34.67,-46.24 105.04,-87.06 166.98,-104.8 30.03,-8.61 64.84,-16.62 97.48,-21.86 18.61,-2.97 33.82,-5.12 52.58,-7.75l92.77 -11.38z"/>
  <path class="fil0" d="M13737.16 716.25c-33.88,-4.56 -143.34,-39.42 -173.52,-57.02 -147.44,-86.03 -156.79,-254.22 -164.36,-487.56l-21.77 101.66c-7.11,34.36 -14.52,69.02 -23.29,101.96 -26.7,100.06 -56.88,171.88 -119.07,219.69 -59.5,45.76 -207.42,74.68 -276.34,86.81 11.16,10.12 157.98,29.52 199.75,52.19 50.16,27.23 73.79,51.48 104.78,103.47 39.52,66.3 49.6,185.96 56.25,274.79l8.36 105.16c0.29,1.18 0.76,2.85 1.32,4.14 16.87,-134 56.97,-285.37 111.57,-371.98 23.02,-36.52 72.95,-71.17 117.99,-88.12 21.83,-8.22 47.28,-16.29 71.26,-22.16 13.68,-3.34 24.87,-5.85 38.69,-8.95l68.39 -14.08z"/>
 </g>
</svg>
