<?xml version="1.0" encoding="UTF-8"?>
<!DOCTYPE svg PUBLIC "-//W3C//DTD SVG 1.1//EN" "http://www.w3.org/Graphics/SVG/1.1/DTD/svg11.dtd">
<!-- Creator: CorelDRAW 2020 (64-Bit) -->
<svg xmlns="http://www.w3.org/2000/svg" xml:space="preserve" width="84.6666mm" height="84.6666mm" version="1.1" style="shape-rendering:geometricPrecision; text-rendering:geometricPrecision; image-rendering:optimizeQuality; fill-rule:evenodd; clip-rule:evenodd"
viewBox="0 0 8466.66 8466.66"
 xmlns:xlink="http://www.w3.org/1999/xlink"
 xmlns:xodm="http://www.corel.com/coreldraw/odm/2003">
 <defs>
  <style type="text/css">
   <![CDATA[
    .fil0 {fill:#FEFEFE}
    .fil1 {fill:#E31E24}
    .fil3 {fill:#00A0E3}
    .fil2 {fill:#FEFEFE;fill-rule:nonzero}
   ]]>
  </style>
 </defs>
 <g id="Warstwa_x0020_1">
  <metadata id="CorelCorpID_0Corel-Layer"/>
  <path class="fil0" d="M6992.94 2618.28c-41.48,52.41 -83.65,102.86 -126.48,151.36 235.95,19.93 436.04,61.4 600.25,124.41 284.17,94.95 446.59,256.33 487.27,484.15 23.79,-180.57 25.81,-375.55 -151.37,-472.75 95.24,-18.29 204.09,-61.83 326.57,-130.62 -212.2,12.67 -442.01,-8.76 -689.42,-64.28 -131.62,-24.07 -280.57,-54.83 -446.82,-92.27z"/>
  <path class="fil0" d="M3312.65 2699.13c688.67,48.03 1076.04,107.82 1162.12,179.36 -1486.7,-194.74 -2787.44,-55.13 -3902.19,418.83 689.77,-428.01 1530.19,-629.83 2521.29,-605.44 1103.81,-487.53 2249.72,-537.29 3437.75,-149.28 54.04,24.78 96.54,73.85 127.51,147.2 -1208.11,119.57 -1812.17,179.36 -1812.17,179.36 33.02,-52.66 449.09,-122.47 1248.23,-209.42 -442.33,-92.61 -663.5,-138.92 -663.5,-138.92 140.46,-15.23 397.57,24.86 771.32,120.26 158.96,-13.83 238.44,-20.74 238.44,-20.74 -11.06,-22.11 -16.59,-33.17 -16.59,-33.17 -1143.09,-289.96 -2180.5,-252.64 -3112.21,111.96z"/>
  <path class="fil1" d="M2097.66 3966.51c-129.94,327.25 -194.92,490.88 -194.92,490.88 1379.52,-2.76 2069.28,-4.15 2069.28,-4.15 78.11,-226 117.16,-339 117.16,-339 -978.66,5.53 -1467.99,8.29 -1467.99,8.29 35.09,-61.8 109.56,-97.74 223.41,-107.82 754.4,-153.77 1131.59,-230.66 1131.59,-230.66 130.38,-14.71 224.38,-74.15 281.99,-178.32 71.88,-190.75 107.82,-286.13 107.82,-286.13 47.5,-150.92 -77.94,-259.77 -378.4,-287.17 -1068.51,-8.29 -1602.77,-4.15 -1602.77,-4.15 -71.87,222.55 -108.85,345.23 -108.85,345.23 884.67,-9.68 1327,-14.52 1327,-14.52 78.94,-4.1 113.15,20.44 102.63,73.61 -14.78,74.01 -78.36,119.28 -190.75,135.81 -837.67,152.05 -1256.51,228.08 -1256.51,228.08 -73.79,8.29 -127.35,64.96 -160.69,170.02z"/>
  <path class="fil1" d="M4627.94 3029.35c-341.42,951.02 -511.23,1423.99 -511.23,1423.99 239.1,0.09 479.21,-1.63 718.43,-0.04 142.38,-422.98 213.05,-632.94 213.05,-632.94 393.26,421.59 589.89,632.39 589.89,632.39 324.84,0 649.68,0 974.52,0 -566.74,-500.39 -850.11,-750.58 -850.11,-750.58 821.08,-449.25 1231.62,-673.87 1231.62,-673.87 -288.9,0 -577.8,0 -866.7,0 -678.7,387.04 -1018.06,580.56 -1018.06,580.56 143.76,-382.89 219.27,-579.27 219.27,-579.27 -464.97,-2.25 -700.68,-0.24 -700.68,-0.24z"/>
  <path class="fil2" d="M572.58 5626.97l193.34 0 30.17 -185.12 171.4 0 31.53 185.12 193.34 0 -204.31 -913.22 -211.16 0 -204.31 913.22zm252.3 -352.4l57.59 -367.48 57.59 367.48 -115.18 0zm785.69 -560.82l0 686.97c0,50.74 -23.31,75.42 -86.38,75.42 -63.08,0 -86.39,-24.68 -86.39,-78.16l0 -684.23 -191.96 0 0 673.26c0,157.69 86.38,256.41 278.35,256.41 191.96,0 278.35,-98.72 278.35,-256.41l0 -673.26 -191.97 0zm427.81 913.22l191.97 0 0 -745.93 167.28 0 0 -167.29 -526.53 0 0 167.29 167.28 0 0 745.93zm408.61 -263.27c0,154.94 65.82,279.72 279.72,279.72 213.91,0 279.73,-124.78 279.73,-279.72l0 -386.67c0,-154.95 -65.82,-279.73 -279.73,-279.73 -213.9,0 -279.72,124.78 -279.72,279.73l0 386.67zm191.97 19.19l0 -425.06c0,-58.96 20.57,-97.36 87.75,-97.36 67.19,0 87.76,38.4 87.76,97.36l0 425.06c0,58.96 -20.57,97.36 -87.76,97.36 -67.18,0 -87.75,-38.4 -87.75,-97.36zm737.7 244.08l290.69 0c182.36,0 261.89,-82.27 261.89,-276.98l0 -359.25c0,-194.71 -79.53,-276.99 -261.89,-276.99l-290.69 0 0 913.22zm191.96 -167.29l0 -578.64 79.53 0c69.93,0 89.13,28.79 89.13,101.47l0 375.7c0,72.67 -19.2,101.47 -89.13,101.47l-79.53 0zm467.58 167.29l468.94 0 0 -167.29 -276.98 0 0 -209.79 252.3 0 0 -167.29 -252.3 0 0 -201.56 275.61 0 0 -167.29 -467.57 0 0 913.22zm686.96 0l191.97 0 0 -745.93 167.28 0 0 -167.29 -526.53 0 0 167.29 167.28 0 0 745.93zm320.86 0l193.34 0 30.16 -185.12 171.4 0 31.54 185.12 193.34 0 -204.31 -913.22 -211.16 0 -204.31 913.22zm252.3 -352.4l57.59 -367.48 57.59 367.48 -115.18 0zm436.03 352.4l191.97 0 0 -913.22 -191.97 0 0 913.22zm318.12 0l422.32 0 0 -167.29 -230.36 0 0 -745.93 -191.96 0 0 913.22zm516.93 0l191.97 0 0 -913.22 -191.97 0 0 913.22zm318.12 0l185.11 0 0 -515.57 227.61 515.57 190.6 0 0 -913.22 -185.11 0 0 515.57 -228.99 -515.57 -189.22 0 0 913.22zm713.01 -244.08c0,172.77 91.87,260.53 281.09,260.53 94.62,0 189.23,-15.08 249.56,-37.02l0 -427.81 -176.88 0 0 297.55c-15.09,5.48 -38.39,6.85 -57.59,6.85 -80.9,0 -104.21,-37.02 -104.21,-108.32l0 -383.93c0,-93.24 34.28,-126.15 127.52,-126.15 68.55,0 122.03,9.59 185.11,28.79l24.68 -161.8c-57.59,-20.57 -143.98,-34.28 -228.99,-34.28 -180.99,0 -300.29,68.56 -300.29,276.98l0 408.61z"/>
  <path class="fil2" d="M3463.92 6323.12c-56.05,0 -99.59,-15.52 -130.84,-46.57 -31.25,-30.94 -46.88,-72.61 -46.88,-124.9 0,-50.21 13.02,-98.96 39.06,-146.15 26.05,-47.19 60.73,-85.11 104.07,-113.75 43.44,-28.65 93.97,-43.03 151.78,-43.03 57.82,0 102.19,15.63 133.13,46.88 30.94,31.15 46.36,72.71 46.36,124.59 0,50.21 -12.92,98.75 -38.65,145.63 -25.73,46.88 -60.21,84.8 -103.65,113.86 -43.33,28.96 -94.8,43.44 -154.38,43.44zm21.14 -61.88c29.38,0 57.3,-9.69 83.45,-29.06 26.25,-19.27 48.02,-48.34 65.41,-86.99 17.4,-38.75 26.05,-78.02 26.05,-117.92 0,-38.85 -8.96,-68.02 -26.98,-87.5 -18.02,-19.48 -41.46,-29.17 -70.53,-29.17 -28.43,0 -56.04,9.9 -82.81,29.58 -26.67,19.8 -48.55,48.97 -65.53,87.51 -16.98,38.65 -25.42,77.5 -25.42,116.57 0,40.1 9.28,69.69 27.92,88.54 18.55,18.96 41.36,28.44 68.44,28.44zm303.87 50.63l90.01 -451.9 157.19 0c51.05,0 85.32,8.75 102.82,26.26 17.5,17.39 26.25,38.64 26.25,63.64 0,29.07 -9.06,59.28 -27.29,90.63 -18.23,31.25 -43.23,54.69 -75.11,70.42 -31.88,15.63 -69.28,23.44 -112.2,23.44l-34.16 0 -35.32 177.51 -92.19 0zm139.49 -237.51l22.6 0c23.44,0 43.44,-4.27 60,-12.92 16.57,-8.64 30.32,-22.4 41.16,-41.25 10.73,-18.75 16.14,-37.4 16.14,-55.94 0,-13.86 -5.31,-24.38 -15.83,-31.56 -10.63,-7.19 -33.76,-10.84 -69.28,-10.84l-24.48 0 -30.31 152.51zm431.58 248.76c-56.05,0 -99.59,-15.52 -130.84,-46.57 -31.25,-30.94 -46.88,-72.61 -46.88,-124.9 0,-50.21 13.02,-98.96 39.07,-146.15 26.04,-47.19 60.73,-85.11 104.06,-113.75 43.44,-28.65 93.97,-43.03 151.78,-43.03 57.82,0 102.19,15.63 133.13,46.88 30.94,31.15 46.36,72.71 46.36,124.59 0,50.21 -12.92,98.75 -38.65,145.63 -25.73,46.88 -60.21,84.8 -103.65,113.86 -43.33,28.96 -94.8,43.44 -154.38,43.44zm21.15 -61.88c29.37,0 57.29,-9.69 83.44,-29.06 26.25,-19.27 48.02,-48.34 65.42,-86.99 17.39,-38.75 26.04,-78.02 26.04,-117.92 0,-38.85 -8.96,-68.02 -26.98,-87.5 -18.02,-19.48 -41.46,-29.17 -70.52,-29.17 -28.44,0 -56.05,9.9 -82.82,29.58 -26.67,19.8 -48.55,48.97 -65.53,87.51 -16.98,38.65 -25.42,77.5 -25.42,116.57 0,40.1 9.28,69.69 27.92,88.54 18.55,18.96 41.36,28.44 68.45,28.44zm303.86 50.63l90.01 -451.9 93.65 0 -77.51 389.4 209.5 0 -12.51 62.5 -303.14 0zm367.1 0l90.01 -451.9 284.39 0 -12.19 62.51 -191.05 0 -25.01 125.63 152.61 0 -11.56 58.75 -152.71 0 -28.34 142.51 203.56 0 -12.19 62.5 -297.52 0z"/>
  <polygon class="fil0" points="3138.87,6114.91 3138.87,6063.92 924.51,6063.92 "/>
  <polygon class="fil0" points="5575.18,6109.43 5575.18,6058.43 7789.53,6058.43 "/>
  <path class="fil3" d="M7032.69 2554.85c-21.03,-4.59 -87.94,-32.04 -105.99,-44.63 -88.15,-61.49 -85.45,-167.52 -78.32,-314.34l-18.84 62.69c-6.21,21.2 -12.62,42.57 -19.81,62.8 -21.85,61.44 -44.45,104.97 -85.91,131.81 -39.67,25.68 -133.97,36.3 -177.84,40.41 6.49,6.92 97.64,26.57 122.7,42.92 30.1,19.65 43.68,36.07 60.48,70.27 21.43,43.62 21.67,119.23 21.31,175.31l-0.11 66.42c0.13,0.76 0.33,1.83 0.62,2.66 17.41,-83.23 50.29,-176.18 88.96,-227.75 16.3,-21.75 49.4,-40.95 78.53,-49.29 14.13,-4.05 30.5,-7.82 45.85,-10.28 8.76,-1.4 15.91,-2.41 24.74,-3.65l43.63 -5.35z"/>
  <path class="fil0" d="M7033.68 2532.76c-15.94,-2.14 -67.42,-18.54 -81.61,-26.82 -69.35,-40.46 -73.75,-119.57 -77.31,-229.32l-10.24 47.82c-3.34,16.16 -6.82,32.46 -10.95,47.95 -12.56,47.06 -26.76,80.84 -56.01,103.33 -27.99,21.52 -97.55,35.12 -129.97,40.83 5.25,4.76 74.31,13.89 93.95,24.55 23.6,12.81 34.71,24.22 49.28,48.67 18.59,31.18 23.33,87.46 26.46,129.24l3.93 49.46c0.14,0.55 0.36,1.34 0.62,1.94 7.94,-63.02 26.8,-134.21 52.47,-174.95 10.83,-17.18 34.31,-33.47 55.5,-41.45 10.27,-3.86 22.24,-7.66 33.52,-10.42 6.43,-1.57 11.69,-2.75 18.19,-4.21l32.17 -6.62z"/>
 </g>
</svg>
