<?xml version="1.0" encoding="UTF-8"?>
<!DOCTYPE svg PUBLIC "-//W3C//DTD SVG 1.1//EN" "http://www.w3.org/Graphics/SVG/1.1/DTD/svg11.dtd">
<!-- Creator: CorelDRAW 2020 (64-Bit) -->
<svg xmlns="http://www.w3.org/2000/svg" xml:space="preserve" width="84.6666mm" height="84.6666mm" version="1.1" style="shape-rendering:geometricPrecision; text-rendering:geometricPrecision; image-rendering:optimizeQuality; fill-rule:evenodd; clip-rule:evenodd"
viewBox="0 0 8466.66 8466.66"
 xmlns:xlink="http://www.w3.org/1999/xlink"
 xmlns:xodm="http://www.corel.com/coreldraw/odm/2003">
 <defs>
  <style type="text/css">
   <![CDATA[
    .fil1 {fill:#FEFEFE}
    .fil2 {fill:#E31E24}
    .fil4 {fill:#00A0E3}
    .fil0 {fill:black}
    .fil3 {fill:#FEFEFE;fill-rule:nonzero}
   ]]>
  </style>
 </defs>
 <g id="Warstwa_x0020_1">
  <metadata id="CorelCorpID_0Corel-Layer"/>
  <rect class="fil0" x="-16.94" y="-8.47" width="8483.6" height="8483.6"/>
  <g id="_1796800081136">
   <path class="fil1" d="M6787.8 2442.08c-40.27,50.88 -81.2,99.86 -122.79,146.95 229.08,19.34 423.33,59.6 582.76,120.78 275.88,92.18 433.57,248.86 473.06,470.04 23.1,-175.31 25.07,-364.61 -146.95,-458.97 92.46,-17.76 198.14,-60.03 317.05,-126.82 -206.02,12.3 -429.13,-8.5 -669.33,-62.4 -127.79,-23.38 -272.39,-53.24 -433.8,-89.58z"/>
   <path class="fil1" d="M3214.77 2520.57c668.6,46.63 1044.69,104.68 1128.26,174.13 -1443.38,-189.07 -2706.2,-53.52 -3788.47,406.63 669.66,-415.55 1485.6,-611.48 2447.81,-587.8 1071.64,-473.32 2184.15,-521.63 3337.56,-144.93 52.46,24.06 93.73,71.7 123.8,142.91 -1172.91,116.09 -1759.36,174.13 -1759.36,174.13 32.05,-51.12 436,-118.9 1211.85,-203.31 -429.44,-89.92 -644.16,-134.88 -644.16,-134.88 136.36,-14.78 385.98,24.14 748.83,116.76 154.33,-13.42 231.5,-20.13 231.5,-20.13 -10.74,-21.47 -16.11,-32.21 -16.11,-32.21 -1109.78,-281.51 -2116.95,-245.28 -3021.51,108.7z"/>
   <path class="fil2" d="M2035.2 3751.01c-126.16,317.72 -189.25,476.58 -189.25,476.58 1339.32,-2.69 2008.98,-4.03 2008.98,-4.03 75.83,-219.42 113.74,-329.13 113.74,-329.13 -950.13,5.37 -1425.2,8.06 -1425.2,8.06 34.06,-60 106.36,-94.9 216.9,-104.68 732.41,-149.3 1098.61,-223.94 1098.61,-223.94 126.58,-14.28 217.83,-71.99 273.76,-173.12 69.79,-185.19 104.68,-277.79 104.68,-277.79 46.12,-146.52 -75.67,-252.21 -367.37,-278.81 -1037.36,-8.05 -1556.05,-4.02 -1556.05,-4.02 -69.79,216.06 -105.68,335.16 -105.68,335.16 858.88,-9.39 1288.32,-14.09 1288.32,-14.09 76.64,-3.98 109.86,19.84 99.64,71.46 -14.35,71.86 -76.08,115.81 -185.19,131.85 -813.26,147.63 -1219.89,221.44 -1219.89,221.44 -71.64,8.05 -123.64,63.07 -156,165.06z"/>
   <path class="fil2" d="M4491.73 2841.16c-331.47,923.31 -496.33,1382.49 -496.33,1382.49 232.13,0.09 465.24,-1.58 697.49,-0.04 138.23,-410.65 206.84,-614.49 206.84,-614.49 381.8,409.31 572.7,613.96 572.7,613.96 315.37,0 630.75,0 946.12,0 -550.23,-485.81 -825.34,-728.71 -825.34,-728.71 797.15,-436.15 1195.73,-654.23 1195.73,-654.23 -280.48,0 -560.96,0 -841.44,0 -658.92,375.76 -988.39,563.64 -988.39,563.64 139.57,-371.73 212.88,-562.38 212.88,-562.38 -451.42,-2.19 -680.26,-0.24 -680.26,-0.24z"/>
   <path class="fil3" d="M554.56 5363.07l187.7 0 29.29 -179.71 166.41 0 30.61 179.71 187.71 0 -198.36 -886.59 -205.01 0 -198.35 886.59zm244.95 -342.12l55.91 -356.77 55.91 356.77 -111.82 0zm762.79 -544.47l0 666.94c0,49.26 -22.63,73.22 -83.87,73.22 -61.24,0 -83.86,-23.96 -83.86,-75.88l0 -664.28 -186.37 0 0 653.63c0,153.09 83.86,248.94 270.23,248.94 186.37,0 270.24,-95.85 270.24,-248.94l0 -653.63 -186.37 0zm415.34 886.59l186.37 0 0 -724.18 162.41 0 0 -162.41 -511.19 0 0 162.41 162.41 0 0 724.18zm396.71 -255.59c0,150.43 63.9,271.57 271.56,271.57 207.67,0 271.57,-121.14 271.57,-271.57l0 -375.4c0,-150.44 -63.9,-271.57 -271.57,-271.57 -207.66,0 -271.56,121.13 -271.56,271.57l0 375.4zm186.37 18.63l0 -412.67c0,-57.25 19.96,-94.52 85.19,-94.52 65.23,0 85.2,37.27 85.2,94.52l0 412.67c0,57.25 -19.97,94.53 -85.2,94.53 -65.23,0 -85.19,-37.28 -85.19,-94.53zm716.19 236.96l282.23 0c177.05,0 254.26,-79.87 254.26,-268.9l0 -348.78c0,-189.04 -77.21,-268.91 -254.26,-268.91l-282.23 0 0 886.59zm186.38 -162.41l0 -561.77 77.21 0c67.89,0 86.52,27.95 86.52,98.51l0 364.75c0,70.56 -18.63,98.51 -86.52,98.51l-77.21 0zm453.94 162.41l455.28 0 0 -162.41 -268.9 0 0 -203.67 244.94 0 0 -162.41 -244.94 0 0 -195.69 267.57 0 0 -162.41 -453.95 0 0 886.59zm666.95 0l186.37 0 0 -724.18 162.41 0 0 -162.41 -511.19 0 0 162.41 162.41 0 0 724.18zm311.51 0l187.69 0 29.29 -179.71 166.41 0 30.61 179.71 187.71 0 -198.36 -886.59 -205.01 0 -198.34 886.59zm244.94 -342.12l55.91 -356.77 55.91 356.77 -111.82 0zm423.33 342.12l186.37 0 0 -886.59 -186.37 0 0 886.59zm308.84 0l410.01 0 0 -162.41 -223.64 0 0 -724.18 -186.37 0 0 886.59zm501.87 0l186.37 0 0 -886.59 -186.37 0 0 886.59zm308.84 0l179.72 0 0 -500.53 220.98 500.53 185.04 0 0 -886.59 -179.72 0 0 500.54 -222.31 -500.54 -183.71 0 0 886.59zm692.24 -236.96c0,167.74 89.19,252.94 272.9,252.94 91.85,0 183.71,-14.64 242.28,-35.94l0 -415.35 -171.73 0 0 288.88c-14.64,5.32 -37.27,6.66 -55.91,6.66 -78.54,0 -101.17,-35.95 -101.17,-105.17l0 -372.74c0,-90.52 33.28,-122.47 123.8,-122.47 66.56,0 118.48,9.31 179.72,27.95l23.96 -157.09c-55.91,-19.96 -139.78,-33.27 -222.31,-33.27 -175.73,0 -291.54,66.56 -291.54,268.9l0 396.7z"/>
   <path class="fil3" d="M3361.63 6038.94c-54.41,0 -96.68,-15.07 -127.02,-45.21 -30.35,-30.04 -45.52,-70.49 -45.52,-121.26 0,-48.75 12.65,-96.08 37.93,-141.89 25.29,-45.82 58.96,-82.63 101.04,-110.44 42.17,-27.82 91.22,-41.77 147.35,-41.77 56.13,0 99.21,15.17 129.25,45.51 30.04,30.24 45.01,70.59 45.01,120.96 0,48.75 -12.54,95.87 -37.53,141.39 -24.98,45.5 -58.45,82.32 -100.63,110.54 -42.07,28.11 -92.03,42.17 -149.88,42.17zm20.53 -60.07c28.52,0 55.63,-9.41 81.01,-28.22 25.49,-18.71 46.62,-46.93 63.51,-84.45 16.89,-37.62 25.29,-75.75 25.29,-114.48 0,-37.73 -8.7,-66.05 -26.19,-84.96 -17.5,-18.91 -40.26,-28.32 -68.47,-28.32 -27.61,0 -54.41,9.61 -80.41,28.73 -25.89,19.21 -47.13,47.53 -63.61,84.95 -16.49,37.52 -24.68,75.24 -24.68,113.17 0,38.94 9,67.66 27.11,85.96 18,18.41 40.14,27.62 66.44,27.62zm295.01 49.15l87.39 -438.73 152.61 0c49.56,0 82.83,8.5 99.82,25.49 16.99,16.89 25.49,37.52 25.49,61.79 0,28.22 -8.8,57.55 -26.5,87.99 -17.7,30.34 -41.97,53.1 -72.92,68.37 -30.95,15.17 -67.26,22.75 -108.93,22.75l-33.16 0 -34.29 172.34 -89.51 0zm135.42 -230.59l21.95 0c22.76,0 42.18,-4.15 58.25,-12.54 16.09,-8.4 29.43,-21.75 39.96,-40.05 10.41,-18.21 15.67,-36.31 15.67,-54.31 0,-13.45 -5.16,-23.67 -15.37,-30.65 -10.32,-6.98 -32.77,-10.51 -67.26,-10.51l-23.76 0 -29.44 148.06zm419.01 241.51c-54.41,0 -96.69,-15.07 -127.03,-45.21 -30.34,-30.04 -45.51,-70.49 -45.51,-121.26 0,-48.75 12.64,-96.08 37.93,-141.89 25.28,-45.82 58.96,-82.63 101.03,-110.44 42.17,-27.82 91.23,-41.77 147.36,-41.77 56.13,0 99.21,15.17 129.25,45.51 30.03,30.24 45,70.59 45,120.96 0,48.75 -12.54,95.87 -37.52,141.39 -24.98,45.5 -58.45,82.32 -100.63,110.54 -42.07,28.11 -92.03,42.17 -149.88,42.17zm20.53 -60.07c28.52,0 55.62,-9.41 81.01,-28.22 25.48,-18.71 46.62,-46.93 63.51,-84.45 16.89,-37.62 25.28,-75.75 25.28,-114.48 0,-37.73 -8.69,-66.05 -26.19,-84.96 -17.5,-18.91 -40.25,-28.32 -68.47,-28.32 -27.61,0 -54.41,9.61 -80.4,28.73 -25.89,19.21 -47.13,47.53 -63.62,84.95 -16.48,37.52 -24.67,75.24 -24.67,113.17 0,38.94 9,67.66 27.1,85.96 18.01,18.41 40.15,27.62 66.45,27.62zm295.01 49.15l87.38 -438.73 90.92 0 -75.24 378.05 203.38 0 -12.14 60.68 -294.3 0zm356.4 0l87.38 -438.73 276.1 0 -11.83 60.68 -185.48 0 -24.28 121.97 148.17 0 -11.23 57.04 -148.26 0 -27.51 138.36 197.62 0 -11.83 60.68 -288.85 0z"/>
   <polygon class="fil1" points="3046.05,5836.8 3046.05,5787.29 896.23,5787.29 "/>
   <polygon class="fil1" points="5411.36,5831.48 5411.36,5781.97 7561.18,5781.97 "/>
   <path class="fil4" d="M6826.4 2380.49c-20.42,-4.45 -85.38,-31.1 -102.9,-43.32 -85.58,-59.7 -82.97,-162.64 -76.04,-305.19l-18.3 60.87c-6.02,20.58 -12.25,41.33 -19.23,60.97 -21.21,59.64 -43.15,101.91 -83.4,127.97 -38.52,24.93 -130.07,35.24 -172.66,39.23 6.3,6.72 94.8,25.8 119.12,41.67 29.22,19.07 42.41,35.02 58.72,68.22 20.8,42.35 21.04,115.76 20.69,170.2l-0.1 64.49c0.12,0.73 0.32,1.77 0.6,2.58 16.9,-80.8 48.82,-171.05 86.36,-221.12 15.83,-21.11 47.96,-39.75 76.25,-47.85 13.71,-3.93 29.61,-7.59 44.51,-9.98 8.5,-1.36 15.44,-2.34 24.01,-3.54l42.37 -5.2z"/>
   <path class="fil1" d="M6827.36 2359.05c-15.48,-2.09 -65.45,-18 -79.24,-26.04 -67.32,-39.29 -71.59,-116.09 -75.05,-222.64l-9.94 46.42c-3.25,15.69 -6.63,31.52 -10.64,46.56 -12.19,45.69 -25.97,78.49 -54.37,100.32 -27.17,20.89 -94.71,34.1 -126.18,39.64 5.09,4.62 72.14,13.48 91.21,23.83 22.91,12.44 33.69,23.52 47.84,47.25 18.05,30.28 22.66,84.92 25.69,125.48l3.81 48.01c0.14,0.54 0.35,1.3 0.61,1.89 7.7,-61.18 26.02,-130.3 50.94,-169.85 10.52,-16.68 33.31,-32.5 53.88,-40.24 9.98,-3.75 21.59,-7.44 32.54,-10.12 6.25,-1.52 11.36,-2.67 17.67,-4.08l31.23 -6.43z"/>
  </g>
 </g>
</svg>
